<svg id="Capa_1" enable-background="new 0 0 511.988 511.988" height="512" viewBox="0 0 511.988 511.988" width="512" xmlns="http://www.w3.org/2000/svg"><g><path fill="white" d="m444.45 336.538c2.061-11.316 3.114-22.833 3.114-34.378 0-103.114-81.902-187.445-184.07-191.4v-34.377h10.54c28.035 0 50.844-22.808 50.844-50.843v-14.04c0-6.341-5.159-11.5-11.5-11.5h-14.04c-23.704 0-43.669 16.307-49.272 38.291-9.3-10.111-22.628-16.461-37.416-16.461h-14.04c-6.341 0-11.5 5.159-11.5 11.5v14.04c0 28.035 22.809 50.843 50.844 50.843h10.54v12.549c-117.146 4.328-201.858 111.019-180.956 225.776-13.938.578-25.334 12.564-25.334 26.562 0 12.405 8.81 23.322 20.951 25.959l14.384 3.118c-11.969 9.327-13.784 27.37-2.899 38.255 2.821 2.82 6.153 4.819 9.7 6.007-1.88 3.554-2.88 7.535-2.88 11.671 0 6.678 2.6 12.956 7.321 17.677 4.667 4.667 10.854 7.257 17.445 7.317.062 6.32 2.493 12.621 7.304 17.432 7.855 7.857 19.762 9.466 29.334 4.44 3.278 9.964 13.35 17.012 23.699 17.012 6.401 0 12.805-2.438 17.678-7.311l18.466-18.465c17.239 4.986 35.141 7.518 53.287 7.518s36.048-2.532 53.287-7.518l18.466 18.465c9.748 9.747 25.607 9.747 35.354 0 2.774-2.774 4.81-6.088 6.022-9.702 9.551 5.018 21.488 3.406 29.334-4.441 4.811-4.811 7.242-11.112 7.304-17.432 6.591-.06 12.779-2.65 17.445-7.317 7.641-7.642 9.465-19.877 4.448-29.336 3.611-1.213 6.921-3.247 9.693-6.019 10.781-10.783 8.863-29.145-2.898-38.255l14.386-3.118c12.139-2.637 20.948-13.554 20.948-25.959.001-14.118-11.527-25.99-25.333-26.56zm-180.956-285.695c0-19.764 16.079-35.843 35.844-35.843h10.54v10.54c0 19.162-15.114 34.859-34.048 35.798l10.874-9.628c3.102-2.746 3.39-7.486.644-10.587-2.746-3.102-7.486-3.39-10.587-.644l-13.267 11.746zm-28.024 8.74c-2.93-2.929-7.678-2.929-10.607 0s-2.929 7.678 0 10.606l13.023 13.023c-19.733-.038-35.775-16.1-35.775-35.841v-10.541h10.54c19.742 0 35.805 16.042 35.842 35.775zm-169.134 314.818c-5.291-1.149-9.132-5.902-9.132-11.301 0-7.163 6.755-12.762 13.757-11.366 2.331 8.728 5.274 17.28 8.808 25.578zm18.91 45.423c-3.847-3.847-3.865-10.314.001-14.142 0 0 29.614-29.614 29.698-29.698 3.845-3.845 10.289-3.852 14.142 0 3.899 3.899 3.899 10.242.001 14.141l-29.7 29.7c-3.832 3.868-10.305 3.836-14.142-.001zm14.143 35.356c-3.899-3.899-3.899-10.243 0-14.142l50.912-50.912c3.822-3.868 10.307-3.871 14.141 0h.001c3.852 3.815 3.867 10.316-.001 14.142l-50.912 50.912c-3.831 3.868-10.305 3.836-14.141 0zm38.891 24.749c-3.899 3.898-10.243 3.9-14.143 0-3.899-3.899-3.899-10.244 0-14.143l50.91-50.911c3.899-3.898 10.243-3.899 14.143 0 3.899 3.899 3.899 10.243 0 14.142zm65.053-15.556-29.699 29.699c-3.898 3.898-10.241 3.899-14.142 0-3.846-3.845-3.865-10.311-.002-14.139l29.701-29.701c3.822-3.868 10.289-3.852 14.142 0 3.899 3.897 3.899 10.242 0 14.141zm10.606-24.749c-2.774-2.774-6.087-4.809-9.701-6.021 4.966-9.437 3.486-21.406-4.44-29.333-4.811-4.811-11.112-7.243-17.432-7.304-.06-6.59-2.65-12.778-7.318-17.445-4.722-4.722-10.999-7.322-17.677-7.322-4.135 0-8.116 1-11.67 2.88-1.188-3.547-3.187-6.88-6.007-9.7h-.001c-4.722-4.722-11-7.322-17.678-7.322s-12.956 2.601-17.678 7.323l-9.345 9.346c-10.207-22.658-15.569-47.536-15.569-72.563 0-36.406 11.079-70.272 30.039-98.409 15.65 10.854 27.312 25.264 31.728 39.521 2.82 9.093 2.239 16.431 1.436 26.586-.983 12.435-2.208 27.91 2.501 52.492 2.292 11.979 4.745 19.523 6.626 24.759 1.416 3.942 5.78 5.892 9.595 4.522 3.898-1.4 5.923-5.696 4.522-9.594-1.697-4.722-3.913-11.547-6.011-22.507-4.329-22.595-3.24-36.351-2.279-48.487.864-10.929 1.611-20.367-2.062-32.211-5.428-17.526-18.778-34.379-37.133-47.166 23.489-29.191 56.049-50.789 93.368-60.452 4.313 18.188 7.86 37.739 10.833 56.821 4.795 30.769 8.582 55.072 26.993 61.001 10.573 3.406 19.625-1.713 27.611-6.227 7.446-4.208 14.479-8.182 23.01-6.527 13.02 2.525 21.539 23.26 33.438 33.04 17.49 14.377 43.057 20.088 68.65 17.97 4.129-.342 7.197-3.966 6.855-8.094-.343-4.128-3.991-7.197-8.094-6.854-22.823 1.887-44.458-3.57-57.887-14.609-14.897-12.246-18.117-31.91-40.105-36.178-13.957-2.709-24.652 3.336-33.247 8.194-7.017 3.965-11.523 6.332-15.634 5.008-9.611-3.096-13.088-25.409-16.77-49.033-3.013-19.331-6.631-39.216-10.981-57.635 9.617-1.628 19.493-2.489 29.567-2.489 97.361 0 176.57 79.205 176.57 176.56 0 25.027-5.362 49.905-15.569 72.563l-9.345-9.345c-4.722-4.722-11-7.323-17.678-7.323s-12.956 2.601-17.678 7.322h-.001c-2.82 2.82-4.818 6.153-6.007 9.7-3.803-2.013-8.144-3.016-12.554-2.859-16.876-15.304-51.375-45.06-76.01-33.252-12.955 6.206-14.933 19.065-17.223 33.956-1.651 10.734-3.522 22.901-9.514 36.543-6.689 15.239-16.91 28.377-31.033 39.882-1.182-3.56-3.183-6.902-6.011-9.728zm84.109 0c-9.404 9.405-9.732 24.497-.99 34.302-13.38 3.187-27.142 4.804-41.064 4.804s-27.684-1.617-41.064-4.804c1.277-1.433 2.357-2.979 3.247-4.603 21.921-14.854 37.171-32.474 46.544-53.827 6.783-15.445 8.902-29.224 10.604-40.294 2.069-13.455 3.312-20.041 8.879-22.708 13.781-6.602 39.099 13.032 53.918 25.924-5.371 4.721-8.438 11.401-8.501 18.546-6.32.062-12.62 2.493-17.432 7.305-7.927 7.927-9.406 19.897-4.44 29.333-3.613 1.213-6.926 3.248-9.701 6.022zm54.447 54.447c-3.898 3.898-10.242 3.898-14.141 0l-29.699-29.699c-3.899-3.899-3.899-10.243 0-14.142h-.001c3.823-3.868 10.308-3.873 14.143 0l29.703 29.703c3.848 3.816 3.841 10.293-.005 14.138zm35.356-14.142c-3.898 3.9-10.243 3.898-14.142 0-8.171-8.17-42.301-42.303-50.911-50.912-3.899-3.899-3.899-10.243 0-14.142s10.244-3.897 14.142 0l50.911 50.912c3.899 3.899 3.899 10.243 0 14.142zm24.749-24.749c-3.849 3.849-10.324 3.855-14.142 0l-50.912-50.912c-3.865-3.827-3.865-10.314 0-14.141h.001c3.822-3.868 10.307-3.872 14.141 0 15.998 16.157 35.612 35.614 50.912 50.912 3.899 3.898 3.899 10.242 0 14.141zm14.141-35.355c-3.898 3.898-10.242 3.898-14.141 0l-29.7-29.7c-3.898-3.899-3.898-10.242.001-14.141h-.001c3.823-3.868 10.289-3.854 14.143 0 5.834 5.834 23.516 23.574 29.699 29.699 3.852 3.815 3.846 10.295-.001 14.142zm18.914-45.425-13.436 2.912c3.534-8.299 6.477-16.851 8.808-25.579 6.93-1.396 13.757 4.204 13.757 11.366 0 5.4-3.841 10.152-9.129 11.301z"/></g></svg>